<svg id="Layer_1" data-name="Layer 1" xmlns="http://www.w3.org/2000/svg" viewBox="0 0 595.28 799.83"><defs><style>.cls-1{fill:#fff;}.cls-2{fill:#7775b0;stroke:#fff;stroke-miterlimit:10;stroke-width:0.32px;}.cls-3{opacity:0.42;}.cls-4{opacity:0.8;}.cls-5{fill:#f18b9f;}.cls-6{fill:#1d1d1b;}</style></defs><title>illustrations govt scemes</title><path class="cls-1" d="M.21,481.73c1-.37,1.93-.73,2.89-1.12a7.94,7.94,0,0,0,2.47-1.23A.81.81,0,0,0,5,478a8.1,8.1,0,0,0-2.62.91l-2.81,1.31c-.84.38-.24,1.84.64,1.5Z"/><path class="cls-1" d="M11,488.12c.78-.23,1.55-.22,2.34-.5l2.26-.76c1.23-.42,2.69-.64,3.62-1.59a.67.67,0,0,0-.47-1.12c-1.38-.17-2.9.7-4.19,1.16-.75.27-1.51.52-2.25.8s-1,.63-1.62.87-.43,1.36.31,1.14Z"/><path class="cls-1" d="M18.92,495,25,492.4c1.51-.63,3.27-1,4.21-2.35a.64.64,0,0,0-.38-.94c-1.66-.28-3.12.74-4.63,1.39l-6.07,2.6c-1.05.45-.28,2.3.78,1.86Z"/><path class="cls-1" d="M26,501.87c4.34-1,8.68-2,13-3.24a1,1,0,0,0-.55-2c-4.29,1.15-8.56,2.47-12.79,3.84a.73.73,0,0,0,.38,1.4Z"/><path class="cls-1" d="M39.65,509.21c2.05-.65,4.08-1.35,6.1-2.06,1.65-.58,3.56-.92,4.83-2.15a.81.81,0,0,0-.57-1.37c-1.78-.13-3.57.93-5.21,1.56-1.9.72-3.77,1.46-5.64,2.23-1.07.45-.68,2.16.49,1.79Z"/><path class="cls-1" d="M50.2,514.37a118.48,118.48,0,0,0,11.68-2.08c1.34-.31.76-2.29-.56-2A111.86,111.86,0,0,0,50,512.91c-.78.22-.67,1.57.19,1.46Z"/><path class="cls-1" d="M61.12,522.13c2.08-.41,4.14-.87,6.21-1.35,1.79-.43,3.88-.6,5.36-1.72.43-.33.52-1.22-.17-1.33-1.83-.28-3.55.42-5.32.89-2.19.58-4.37,1.19-6.54,1.85a.86.86,0,0,0,.46,1.66Z"/><circle class="cls-2" cx="292.47" cy="328.28" r="260.02"/><g class="cls-3"><path class="cls-1" d="M106.79,232.83c41.76-1.93,83.49-4.68,125.22-7.21l30.56-1.85c8.65-.52,17.76-.56,25.93-3.77,13.06-5.12,22.78-22.42,11.19-34.12l-4.08,9.84,138.81-9.34c7.31-.49,7.4-11.88,0-11.46l-69.74,4-33.88,1.92c-11.75.67-23.65,1.39-35.35-.34l-1.51,11.19c23.19-1.45,46.43-2.33,69.64-3.45l33.83-1.62,16.91-.81c3.32-.16,10.4-1.71,13.24.6s1.69,8.41,1.74,11.44l.32,18,.59,34,1.21,70c.45,26,1,52,2.06,77.95.16,3.7,2.83,6.1,6.42,6.42,5.89.52,11.21-3.08,13.84-8.22,3-5.82,1.94-12.74,1.37-19L451,332.15l-8.24-90.48c-.7-7.62-12.1-7.92-12.1,0q0,44.75,0,89.48H442.9l-9.4-137.47c-.21-3.05-2.64-6.45-6.11-6.11-44,4.33-88,8.53-132,13L297,212.53a249.72,249.72,0,0,1,128.13-7.79l1.54-11.42-59.47,4.49c-9.62.73-19.27,1.76-28.91,2.13-7,.27-18.28-.34-19.4-9.37l-3.69,4.84a200.58,200.58,0,0,1,84.45-9.91l-1.36-10L339.21,190c-14.79,3.63-34.32,5.84-42,21-3.69,7.26-4.1,15.58-4.45,23.56Q292,250,291.34,265.5c-.91,20.61-1.61,41.22-2.31,61.83-.8,23.27-1.65,46.54-2.38,69.81h12.27l-5-119.65q-.63-15-1.25-29.92c-.31-8,.7-17.39-2.37-24.92-3-7.36-10-10.13-17.53-10-9.45.1-19,1.28-28.42,1.94-22.24,1.57-44.45,3.52-66.68,5.21l1.55,11.47a278.66,278.66,0,0,1,109.57-11.4l-1.48-10.91c-60.84,11.24-122.56,19.45-184.56,17.92l2.81,10.39c6.91-4.61,15.54-6,23.34-8.46l-4.3-10.2-13.51,6.62c-6.45,3.17-.8,12.8,5.64,9.64l13.5-6.62c5.66-2.78,1.7-12.12-4.3-10.2-8.71,2.79-18.28,4.43-26,9.59-4.54,3-2.89,10.25,2.82,10.39,63,1.54,125.73-6.92,187.51-18.36,6.58-1.22,4.33-10.38-1.47-10.91A304.5,304.5,0,0,0,176.14,220c-6.11,1.77-5.23,12,1.55,11.47,18-1.3,36-2.35,53.93-3.71,9.16-.69,18.31-1.43,27.46-2.15,4.08-.31,8.16-.73,12.24-.94,3.34-.18,6.88-.54,8.27,3,1.17,3,.85,6.76,1,9.92q.31,7,.58,14,.53,14,1.06,27.92l2.07,54.84,2.37,62.82c.3,7.88,12,7.9,12.27,0,1.35-38.55,2.91-77.12,3.69-115.68.38-18.46-.33-37.39,1.44-55.77.76-8,3.72-14.38,11.09-18.11,7-3.56,15.39-4.85,23-6.73L401,185.32c5.9-1.46,4.08-9.49-1.35-10a208.49,208.49,0,0,0-87.12,10.41,5.19,5.19,0,0,0-3.68,4.84c-.24,8.87,6.56,16.11,14.52,19.06,10,3.69,21.62,1.41,31.94.64L426.66,205c6.13-.46,8.38-10,1.55-11.42a265.16,265.16,0,0,0-134.46,7.27c-6.18,2-5.55,12.63,1.62,11.95,44-4.18,88-8.64,132-13l-6.11-6.1,9.41,137.47c.53,7.76,12.22,7.94,12.21,0q-.07-44.74-.1-89.48H430.7l7.16,77.56L441.35,357l1.84,19.89c.13,1.46,2.08,15.1-1.58,14.58l4.71,6.19c.57-49.3-.64-98.61-1.31-147.91l-.53-38q-.11-8.49-.23-17c-.08-5-.26-10.45-2.79-15-5.67-10.16-17.13-9.41-27.14-8.65L377.51,174c-27.85,2.12-55.7,4.53-83.57,6.26-6,.37-8.24,10.19-1.52,11.19,23.12,3.43,47.06.28,70.26-1l71.74-4V174.92l-138.81,9.27c-4.87.32-7.75,6.13-4.08,9.84,4.13,4.17,1.09,11-3.06,14-5.61,4.05-13.34,4.38-20,4.86-18.07,1.3-36.15,2.49-54.23,3.74-35.83,2.48-71.67,4.82-107.47,7.8-5.31.45-5.45,8.65,0,8.4Z"/></g><g class="cls-4"><path class="cls-5" d="M338.25,441c15.66,1.76,31.95.56,47.69.52l23.85-.05,10.92,0c4.2,0,7.57.47,10.5-3a5.19,5.19,0,0,0,0-7.08c-4.42-5.23-15.19-3-21.42-3H385.94c-15.74,0-32-1.16-47.69.63-7.69.88-7.72,11.13,0,12Z"/></g><g class="cls-4"><path class="cls-5" d="M319.73,455.7c1.08,3.35,4.33,3.48,7.44,3.72,5.28.41,10.63.53,15.92.7,10.61.32,21.23.4,31.84.6,20.67.39,41.36,2.33,61.89-1.11,6.67-1.12,3.84-11.28-2.8-10.16-10.36,1.73-20.87,1.81-31.34,1.71s-21.15.21-31.73.13-21.23-.34-31.84-.17c-2.55.05-21.36-1.62-19.38,4.58Z"/></g><g class="cls-4"><path class="cls-5" d="M450.76,290.51c.61,3.95,5.13,6.51,8.08,8.84a122.38,122.38,0,0,0,12.48,8.73,217.44,217.44,0,0,0,27.86,14.24c6.05,2.56,9.68-5.86,3.52-8.36a248.14,248.14,0,0,1-28-13.42c-4.17-2.33-8.36-4.61-12.52-7-3.35-1.88-6.73-4.89-10.71-4.31-.58.08-.77.75-.7,1.23Z"/></g><g class="cls-4"><path class="cls-5" d="M282.67,175c5.87,1.77,12.65,1.36,18.73,1.31,6.89-.06,13.79-.2,20.67-.59,13.45-.76,26.88-1.89,40.3-3.11,26.86-2.43,53.7-5.11,80.65-6.33,6.57-.3,6.63-10.49,0-10.28-27,.86-53.8,3.7-80.65,6.12-13.09,1.17-26.19,2.27-39.32,3-6.88.4-13.77.84-20.66,1.11-6.42.25-13.5-.18-19.72,1.54-3.61,1-3.5,6.16,0,7.22Z"/></g><g class="cls-4"><path class="cls-5" d="M131.9,285.53c25,1.15,50.09-.27,75.08-.88,12.19-.3,24.38-.52,36.56-1,6.24-.27,12.52-.76,18.77-.78,6.59,0,13.17.67,19.76.58l-5.86-5.86a271.29,271.29,0,0,1-2.27,53.74l5.44-4.14c-49.41,1.19-98.86.95-148.28,1.61l5.88,4.48a111.48,111.48,0,0,1,2.25-47.73H127.4a116,116,0,0,1,1.08,40H140.8c-2.22-9.68-6-26.73,8-29.11,6.51-1.11,13.49-.7,20.07-.94l20.94-.74q42.39-1.55,84.78-3.49V278.58c-17.5,1.61-35,3.12-52.53,4.42a6.55,6.55,0,0,0-6.4,6.4c-.32,13.29-.85,26.57-1,39.86l6.92-6.92-24.51.63,6.89,6.88q-.41-19.41-.89-38.84l-13.28,1.8c3.42,10.09,6.74,20.2,10.1,30.3,2,6.07,11.48,6.88,13.12,0L219.7,295l-13.49-1.82c-.26,10-.66,20-1,30.05-.32,9.23,14.26,9.27,14.37,0,.11-10,.16-20,.37-30.05.16-7.66-11.71-9.44-13.49-1.83l-6.58,28.17H213c-3.4-10.09-6.84-20.16-10.18-30.27-2.32-7-13.41-6.13-13.28,1.79q.3,19.42.63,38.84a7,7,0,0,0,6.89,6.89l24.51-.56a7,7,0,0,0,6.92-6.92c.17-13.28,0-26.57,0-39.86L222,295.81c17.5-1.71,35-3.19,52.53-4.58,8-.64,8.23-12.93,0-12.65q-49.38,1.68-98.74,4c-8,.36-16.07.5-24.06,1.12-6.26.49-12.27,1.83-17.13,6.06-11.34,9.88-9.33,26.13-6.16,39.14,1.4,5.74,11.44,6.43,12.32,0a137.38,137.38,0,0,0-1.57-46.64c-1.25-6.05-10.34-5.64-11.83,0a125.87,125.87,0,0,0-2.19,54.24c.45,2.58,3.4,4.52,5.89,4.48,49.43-.71,98.85-2.34,148.28-2.54,2.27,0,5-1.73,5.44-4.14a236,236,0,0,0,3.11-56.74c-.22-3.08-2.51-6-5.86-5.86-6.28.21-12.51,1.06-18.77,1.45s-12.53.17-18.77.2c-12.52.07-25,.44-37.55.73-25,.59-50.16.39-75.08,2.74-5.51.52-5.68,8.44,0,8.71Z"/></g><g class="cls-4"><path class="cls-5" d="M311.78,274.64c-1.58,18.35-1,37-.67,55.42a5,5,0,0,0,4.88,4.88c14.71,0,29.42.15,44.13,0a5.33,5.33,0,0,0,5.26-5.27L364,274c-.06-2.59-2.36-5.55-5.23-5.23-13.81,1.55-27.69,2.25-41.51,3.69-7.79.81-8.06,11.89,0,12.33L351,286.68l-1.53-11.27c-11.15,3.83-22.7,6.62-34,10-7.13,2.14-6.18,14.14,1.82,13.5,11.76-.93,23.52-1.86,35.28-2.68l-3.23-11.94c-6,3.31-12.07,6.5-18.11,9.74l-8.63,4.62c-3.19,1.72-6.69,2.71-9.78,4.59-5.71,3.47-3.9,14.45,3.68,13.6,12.63-1.4,25.44-1.76,38.11-2.58L351,300.88q-15,6.51-30,12.95c-6.71,2.9-3.16,13.81,3.66,13.51l27.51-1.19c5.22-.22,7.76-4.48,7.08-9.28-.87-6.1.11-11.76,1-17.75,1-6.55-4.6-10.74-10.61-8.15l-3.26,1.4c-6.08,2.63-2.82,12.37,3.3,12.17l3.61-.12-7-9.14c-2.93,8-2.51,17.19-1.27,25.49l7.07-9.29-27.51,1.36,3.66,13.51q15-6.54,29.92-13.07c6.56-2.85,3.2-13.82-3.63-13.38-12.67.82-25.41,2.11-38.11,2.34l3.69,13.61c2.94-1.44,5.4-3.64,8.25-5.27,3.11-1.79,6.27-3.5,9.4-5.24,6-3.34,11.94-6.72,18-10,5.47-3,3.13-12.31-3.24-11.95-11.75.67-23.51,1.22-35.28,1.76l1.83,13.5c11.13-4,22.12-8.64,33.4-12.2,6.36-2,4.86-10.75-1.52-11.26l-33.75-2.73v12.33c13.87-1.65,27.63-4,41.51-5.57L353.57,274l1.28,55.68,5.27-5.26c-14.72.11-29.43.47-44.13.74l4.88,4.88c-.67-18.68-1.07-37.62-3.62-56.16-.46-3.31-5.22-2.15-5.47.74Z"/></g><path class="cls-1" d="M289.72,178.4c12.29.84,25.2-1.15,37.48-1.94l38.47-2.5q18.75-1.25,37.49-2.45c12.7-.82,25.75-2.59,38.47-2.31,1.87,0,1.64-2.94-.36-2.64-12.78,2-26.19,1.93-39.1,2.8s-25.65,1.72-38.47,2.58q-18.75,1.25-37.49,2.52c-12,.82-24.79.56-36.63,3-.57.12-.4.94.14,1Z"/><path class="cls-1" d="M118.93,251.9c-2.6,23-3.3,46.43-4.83,69.57s-2.92,46.38-4.46,69.57c-.09,1.33,2,1.33,2.08,0,1.52-23.19,3.21-46.38,4.74-69.57s3.92-46.39,4.38-69.57c0-1.25-1.77-1.19-1.91,0Z"/><path class="cls-1" d="M127.5,243.82c-.93,5.56-.66,11.35-.84,17-.2,6.3-.57,12.59-.87,18.89l-1.85,37.77c-1.24,25.18-2.38,50.37-3.83,75.53-.09,1.63,2.47,1.63,2.53,0,1-25.18,2.29-50.36,3.49-75.53l1.76-36.78c.57-11.95,2.33-25,.32-36.86a.37.37,0,0,0-.71,0Z"/><path class="cls-1" d="M100.07,244.26a.1.1,0,0,0,0-.2.1.1,0,0,0,0,.2Z"/><path class="cls-1" d="M99,245.17c6.21,3.13,12.42,6.29,18.67,9.35,1.52.74,2.86-1.54,1.33-2.28-6.26-3.05-12.58-6-18.88-9-1.27-.6-2.4,1.26-1.12,1.9Z"/><path class="cls-1" d="M106.76,242.23c3.65,2.33,7.53,4.37,11.33,6.44,3,1.65,6.09,3.88,9.51,4.32.78.1,1-1,.59-1.43-2.35-2.64-6.29-4-9.42-5.56-3.65-1.85-7.31-3.77-11.08-5.36a.92.92,0,0,0-.93,1.59Z"/><path class="cls-1" d="M98.89,237.82c-.64,2.13-.47,4.88-.41,7.08a.94.94,0,0,0,1.88,0c.06-2.2.22-5-.41-7.08a.56.56,0,0,0-1.06,0Z"/><path class="cls-1" d="M106.55,237.73c-.08,1.88-.26,3.8-.19,5.69a.92.92,0,0,0,1.84,0c0-1.89-.15-3.81-.25-5.69a.7.7,0,0,0-1.4,0Z"/><path class="cls-1" d="M101.07,244.65a1.19,1.19,0,0,0,0-1.22l-.8,1a18.93,18.93,0,0,0,3.9.42c1.22.06,2.49.34,3.6-.25a.82.82,0,0,0,0-1.4c-1.07-.63-2.39-.4-3.6-.39a18.81,18.81,0,0,0-3.9.24c-.86.19-.54,1.31.19,1.4l-.21-.08c0,.43.67.65.84.23Z"/><path class="cls-1" d="M100.41,238.67c1.29.05,2.58,0,3.87,0a15.59,15.59,0,0,0,3.55-.2c.8-.19.87-1.54,0-1.69a28,28,0,0,0-7.42.31.79.79,0,0,0,0,1.58Z"/><path class="cls-1" d="M109,237.92c5.84,3,12.75,5.14,19,7,1.23.36,1.65-1.43.51-1.88-6-2.42-12.68-5.07-19.08-6.31-.66-.13-1.15.8-.48,1.15Z"/><path class="cls-1" d="M99.75,220.29c-.88,4.83-.49,10.06-.59,15a.85.85,0,0,0,1.69,0c0-4.9.46-10.12-.33-15a.4.4,0,0,0-.77,0Z"/><path class="cls-1" d="M104.87,238.61c30.31-.5,60.75-3.69,91-5.77s60.65-4.2,91-6c1.32-.08,1.32-2.16,0-2-30.31,2.36-60.65,4.37-91,6.41s-60.87,3-91,6.59c-.49,0-.52.78,0,.77Z"/><path class="cls-1" d="M99.93,223.64c31.34-2.08,62.63-5.25,93.91-8s62.58-6.38,93.91-7.81c1.58-.08,1.5-2.6,0-2.41-31.13,4-62.64,5.87-93.91,8.61s-62.67,5-93.91,8.45c-.72.07-.75,1.19,0,1.14Z"/><path class="cls-1" d="M289.2,177.57a196,196,0,0,0-.95,25.63.6.6,0,0,0,1.19,0,192.27,192.27,0,0,0,.67-25.63.46.46,0,0,0-.91,0Z"/><path class="cls-1" d="M441.45,168.68c.1,19.84,2,39.82,3.1,59.62s2.25,39.75,3.4,59.63c2.2,38.19,1.9,77.16,8.38,115,.34,2,3.35,1.14,3-.84-3-19.61-4.25-39.38-5.28-59.17-1-19-2.34-38-3.58-56.93-1.25-19.21-2.45-38.42-3.71-57.64-1.29-19.81-1.85-39.89-4.14-59.62-.09-.75-1.21-.8-1.21,0Z"/><path class="cls-1" d="M305.7,212.79c9.82.83,20-.06,29.83-.33q13.92-.37,27.84-.76,28.83-.82,57.67-1.63c2-.06,2-3.14,0-3.07l-58.67,2q-14.42.5-28.83,1c-9.28.34-18.81.14-28,1.51-.73.1-.47,1.15.17,1.21Z"/><path class="cls-1" d="M423.46,208.26c-.24,16.18.85,32.43,1.37,48.6s1.1,32.4,1.73,48.6q.93,23.81,1.87,47.61c.65,16.56,2.07,33.09,2.36,49.67a1.54,1.54,0,0,0,3.07,0c0-16.24-1.5-32.46-2.19-48.68s-1.39-32.4-2.09-48.6q-1-23.81-2.22-47.61c-.81-16.5-1.08-33.14-2.67-49.59a.62.62,0,0,0-1.23,0Z"/><path class="cls-1" d="M304.56,212.13c-1.62,15.71-1,32-1.33,47.75s-.5,31.83-.79,47.74c-.58,31.39-.57,62.83-1.79,94.21-.07,2,3,2,3.08,0,1.32-31.36,1.08-62.83,1.42-94.21.17-15.91.44-31.83.6-47.74s1.22-32,.06-47.75a.63.63,0,0,0-1.25,0Z"/><path class="cls-1" d="M308.28,214.08c-1,15.17-.66,30.6-.77,45.8q-.18,23.4-.28,46.79c-.15,30.51-.54,61-.07,91.53a1.58,1.58,0,0,0,3.16,0c-.13-30.51-.34-61-.31-91.53q0-22.89,0-45.8c0-15.52.48-31.29-.5-46.79a.62.62,0,0,0-1.23,0Z"/><path class="cls-1" d="M286.37,225.72c-1.3,14.46-1.13,29.19-1.42,43.7s-.57,29.13-.84,43.69c-.53,28.9,0,58.05-1.72,86.9-.11,1.82,2.72,1.81,2.83,0,1.78-28.84,1.14-58,1.6-86.9q.35-21.84.66-43.69c.2-14.5.88-29.21.06-43.7a.59.59,0,0,0-1.17,0Z"/><path class="cls-1" d="M308.7,211.83c3.48,6.94,7,13.87,10.75,20.7.67,1.23,2.55.13,1.89-1.11-3.66-6.84-7.5-13.61-11.39-20.33-.47-.81-1.67-.09-1.25.74Z"/><path class="cls-1" d="M319.67,231.74c-.36,1.51-.63,3-.91,4.57a17.4,17.4,0,0,0-.59,4.23,1,1,0,0,0,1.85.25,19.05,19.05,0,0,0,.83-4.6c.2-1.41.4-2.81.52-4.22.09-1-1.47-1.17-1.7-.23Z"/><path class="cls-1" d="M310.52,242.42c.77.91,2.27.58,3.34.52,1.45-.07,3.17.09,4.52-.45.8-.31,1-1.64,0-1.85-1.52-.32-3.26.13-4.8.32-1.07.13-2.51.07-3.11,1.09a.32.32,0,0,0,0,.37Z"/><path class="cls-1" d="M323.06,233.2c6.11,1.69,13.67.35,20,.14,7-.22,13.92-.47,20.88-.71,14.19-.49,28.55-1.66,42.74-1.26,1.94,0,1.88-3.15,0-3-14.13,1.39-28.55,1.24-42.74,1.76-7,.25-13.92.49-20.88.76-6.31.24-14-.57-20,1.55a.38.38,0,0,0,0,.73Z"/><path class="cls-1" d="M420.59,207.37c-5.12,7.08-10.86,14.71-14.7,22.58-.44.91.79,2.08,1.52,1.17,5.51-7,9.94-15.39,14.17-23.18a.57.57,0,0,0-1-.57Z"/><path class="cls-1" d="M408.17,230a61.8,61.8,0,0,0-.32,8.16,1.15,1.15,0,0,0,2.3,0,61.8,61.8,0,0,0-.32-8.16.83.83,0,0,0-1.66,0Z"/><path class="cls-1" d="M410.14,237.68a3.28,3.28,0,0,1-1.43,0c-1-.12-1.07,1.71,0,1.64,4.73-.29,9.5-1.73,14.11-2.77,1.4-.31.8-2.44-.6-2.15-4.53,1-9.39,1.63-13.73,3.3l.8,1.38,1.06-.65c.35-.17.2-.81-.21-.76Z"/><path class="cls-1" d="M410.79,236.89c5.9-4.52,8.19-12.87,13.45-18.07,1.29-1.28-1.21-2.93-1.86-1.43-2.9,6.81-9.88,12.1-11.89,19.26,0,.16.16.35.3.24Z"/><path class="cls-1" d="M365.49,263.72c-1.15,7.55-.62,15.44-.67,23.06-.07,8.32,0,16.65,0,25,0,16.65.19,33.3.05,49.94a1.26,1.26,0,0,0,2.51,0c-.25-16.64-.2-33.29-.28-49.94,0-8-.06-16-.17-24s.4-16.19-.85-24.06c0-.28-.54-.29-.58,0Z"/><path class="cls-1" d="M364.33,268.63c7.84.38,15.67.09,23.51-.07,7.18-.15,14.74.36,21.84-.74,1.27-.2.8-2-.29-2.08-7.33-.77-15.15.17-22.53.38s-15,.33-22.53,1.06a.73.73,0,0,0,0,1.45Z"/><path class="cls-1" d="M409.31,267.32c-.92,16.53-.09,33.18.27,49.71s.83,33.15,1.26,49.72c.05,2,3.14,2,3.09,0-.43-16.57-.81-33.15-1.31-49.72s-.52-33.24-2.29-49.71a.51.51,0,0,0-1,0Z"/><path class="cls-1" d="M386.88,269.65c-1,15.22.43,31,.86,46.2q.64,23.11,1.47,46.21c.07,1.95,3.11,2,3.05,0q-.78-23.6-1.71-47.19c-.61-15-.26-30.52-2.27-45.41-.11-.84-1.35-.57-1.4.19Z"/><path class="cls-1" d="M367.29,365.07c6.28,2.08,14.49,1.08,21.09,1.29,7.64.24,15.29.61,22.93.67a1.28,1.28,0,0,0,0-2.55c-7.63-.36-15.29-.41-22.93-.59-6.63-.16-14.69-1.6-21.09.13a.55.55,0,0,0,0,1.05Z"/><path class="cls-1" d="M412.92,239.31c-.64,22.55.81,45.27,1.48,67.81s1.42,45.2,2.24,67.8c.07,2,3.16,2,3.09,0q-1.12-33.9-2.49-67.8c-.9-22.56-1-45.34-3.24-67.81a.54.54,0,0,0-1.08,0Z"/><path class="cls-1" d="M110.27,393.68c3.11,0,6.21-.11,9.32-.12,1.35,0,1.15-2.09-.25-1.87-3,.5-6.11.86-9.15,1.39-.35.06-.25.59.08.6Z"/><path class="cls-1" d="M451.1,287.6c16.65,10,33.4,19.9,50.15,29.76a1.21,1.21,0,0,0,1.22-2.09c-16.83-9.73-33.65-19.47-50.58-29a.78.78,0,0,0-.79,1.35Z"/><path class="cls-1" d="M453.63,294.35c7.3,5.86,15.66,10.58,23.53,15.63q12.64,8.11,25.34,16.12c1.32.84,2.54-1.26,1.22-2.09q-12.27-7.77-24.6-15.46c-8.15-5.08-16.23-10.8-24.88-15-.47-.23-1.08.4-.61.78Z"/><path class="cls-1" d="M502.49,317.28a77.68,77.68,0,0,0-.66,9,1.1,1.1,0,0,0,2.19,0,77.38,77.38,0,0,0,0-9,.76.76,0,0,0-1.51,0Z"/><path class="cls-1" d="M498.63,325c-.14,21.38,1.5,42.9,2.6,64.25.08,1.51,2.43,1.52,2.36,0-1-21.38-1.39-43-3.58-64.25a.69.69,0,0,0-1.38,0Z"/><path class="cls-1" d="M458.76,390.08c6.62,2.62,15.59,1.74,22.6,1.69,7.53,0,15.35,0,22.77-1.32,1.09-.19.81-1.9-.25-1.89-7.83.05-15.65.94-23.5,1-6.89,0-14.9-1.52-21.62,0-.28.07-.22.43,0,.52Z"/><path class="cls-1" d="M468.38,337.69c-1.12,8.12.33,16.91.72,25.07.43,9,.81,18,1.32,26.95.08,1.42,2.31,1.43,2.23,0-.51-9-1.15-18-1.74-26.95-.53-8.17-.07-17.12-2.12-25.07-.05-.19-.38-.22-.41,0Z"/><path class="cls-1" d="M470,338.2c2,1.18,4.39.85,6.63.94l8.74.33c1.61.06,1.61-2.49,0-2.51l-8.74-.13c-2.24,0-4.6-.47-6.63.61a.44.44,0,0,0,0,.76Z"/><path class="cls-1" d="M485.22,339c.31,16.85,2.1,34,3.78,50.73.17,1.62,2.69,1.67,2.58,0-1.12-16.91-2.21-34.19-4.7-50.95-.14-.95-1.67-.71-1.66.22Z"/><path class="cls-1" d="M472.48,363.63a.37.37,0,0,1-.27-.4l-1,1.31a32.78,32.78,0,0,0,3.71.14c1.06,0,2.26.27,3.15-.41.38-.3.67-1,.17-1.36-.95-.74-1.91-.58-3.08-.57-1.32,0-2.64,0-4,.13-1.91.23-.7,3,.73,1.77l.31-.06c.31.05.55-.36.23-.55Z"/><path class="cls-1" d="M474.11,363.92a42,42,0,0,0,.3,5.26c.22,1.45,2.53,1.07,2.53-.34a38.7,38.7,0,0,0-.51-4.92c-.19-1.42-2.35-1.53-2.32,0Z"/><path class="cls-1" d="M226.81,290.05c-.76,11.72-.55,23.56-.55,35.3a1.22,1.22,0,0,0,2.44,0c-.15-11.74-.11-23.58-1-35.3a.44.44,0,0,0-.87,0Z"/><path class="cls-1" d="M228,326.16c6.39,1.8,14.25.62,20.85.58,7.56-.05,15.2.17,22.74-.33a1.06,1.06,0,0,0,0-2.12c-7.55-.35-15.18,0-22.74.14-6.64.09-14.48-.93-20.85,1a.38.38,0,0,0,0,.73Z"/><path class="cls-1" d="M272.3,290c-.25,11.85,1,23.71.76,35.6a1.3,1.3,0,0,0,2.59,0c.18-11.7.23-24.28-2.69-35.69a.34.34,0,0,0-.66.09Z"/><path class="cls-1" d="M225.83,291.28c8.23.11,16.49-.35,24.71-.67,7.54-.29,15.53.14,23-1.18,1-.19.68-1.64-.23-1.72-7.74-.74-16,.4-23.72.73s-15.85.55-23.72,1.29a.78.78,0,0,0,0,1.55Z"/><path class="cls-1" d="M249.15,290.62c-.68,11.4.82,23.08,1.55,34.46.1,1.6,2.61,1.6,2.49,0-.89-11.44-1.05-23.29-3.34-34.55-.08-.42-.68-.29-.7.09Z"/><path class="cls-1" d="M140,293.69c6.46,2.51,15.22.87,22,.75,8.2-.15,16.39-.37,24.58-.59a1.08,1.08,0,0,0,0-2.16c-15.47.39-31,1.33-46.48,1.17-.5,0-.53.66-.11.83Z"/><path class="cls-1" d="M187.59,289.77c-.84,12-.57,24.11-.57,36.15a1.22,1.22,0,0,0,2.44,0c-.05-12,.18-24.13-.7-36.15a.59.59,0,0,0-1.17,0Z"/><path class="cls-1" d="M141.36,292.89a264.42,264.42,0,0,0-1,31.34.84.84,0,0,0,1.67,0,266.42,266.42,0,0,0,.39-31.34.51.51,0,0,0-1,0Z"/><path class="cls-1" d="M139.77,324.37a5.17,5.17,0,0,1-1.94.47c-1.1.15-.8,1.89.26,1.91,16.76.25,33.73-.6,50.47-1.41,1.56-.08,1.58-2.48,0-2.45-16.76.29-33.76.56-50.47,1.91l.49,1.81a4.83,4.83,0,0,1,1.73-1c.73-.31.21-1.55-.54-1.28Z"/><path class="cls-1" d="M165.47,294c-.57,10-1.1,20-1.71,29.94-.09,1.47,2.28,1.49,2.3,0,.12-10,.33-20,.49-29.94a.54.54,0,0,0-1.08,0Z"/><path class="cls-1" d="M311.31,372.85c8.31,1.7,17.72.64,26.18.67l26,.09,26,.09c9.22,0,18.84.84,28-.12a1.07,1.07,0,0,0,0-2.14c-9.15-1-18.78-.26-28-.29l-26-.06-26-.06c-8.46,0-17.87-1.13-26.18.51a.68.68,0,0,0,0,1.31Z"/><path class="cls-1" d="M418.9,374c1.9,1.91,3.9,3.72,6,5.47,1.85,1.59,3.67,3.6,5.86,4.7.91.47,2.32-.57,1.56-1.56-1.57-2.08-3.95-3.6-6-5.23s-4.16-3.27-6.34-4.77c-.84-.58-1.77.69-1.07,1.39Z"/><path class="cls-1" d="M129.55,373.25c49.28.6,98.65.67,147.94-.06a1.11,1.11,0,0,0,0-2.21c-49.29-.32-98.66.16-147.94,1.17a.55.55,0,0,0,0,1.1Z"/><path class="cls-1" d="M109.87,382.39c-8.49,5.81-16.2,12.7-24.42,18.89A1.1,1.1,0,1,0,86.79,403c7.73-6.81,16-13,23.45-20.14.24-.24-.08-.68-.37-.48Z"/><path class="cls-1" d="M84.76,407.25c50.51,2.11,101.21,1.82,151.76,2.53l151.75,2.13,85.86,1.2a1.32,1.32,0,0,0,0-2.64q-151.75-2.14-303.51-4.24c-28.6-.4-57.25-1.2-85.86-.8a.91.91,0,0,0,0,1.82Z"/><path class="cls-1" d="M285.22,401.93c5.5,1.56,12.35,1.26,18,1.39,1.77,0,1.74-2.63,0-2.73-5.69-.32-12.45-1.13-18,0a.71.71,0,0,0,0,1.36Z"/><path class="cls-1" d="M303.91,402.7c.9-.49,1.79-1,2.66-1.52l1.22-.75c.29-.19.87-.72,1.22-.76a1.2,1.2,0,1,0-1-1.8c-.39.76-1.75,1.42-2.44,1.93s-1.6,1.26-2.38,1.91c-.56.47.16,1.32.76,1Z"/><path class="cls-1" d="M433.88,403.7c3.68,1.28,8,.58,11.81.49s8.05.17,11.93-.64a1,1,0,0,0,0-2c-3.91-.62-8-.18-11.93-.09s-8.19-.4-11.81,1a.61.61,0,0,0,0,1.17Z"/><path class="cls-1" d="M334,420.08c14.49,1.88,29.63,1.21,44.23,1.61l44.22,1.2c1.35,0,1.35-2.06,0-2.1l-44.22-1.17c-14.59-.39-29.67-1.88-44.23-.78a.62.62,0,0,0,0,1.24Z"/><path class="cls-1" d="M423.15,422.25a36,36,0,0,0,3.65,3.44,40.19,40.19,0,0,0,3.64,3c1,.66,2-.77,1.22-1.57a40,40,0,0,0-3.81-3.29,35.72,35.72,0,0,0-3.74-2.84c-.79-.5-1.53.59-1,1.24Z"/><path class="cls-1" d="M336.22,419.59a14.45,14.45,0,0,0-4.68,4c-1.11,1.43-2.56,3.56-2.24,5.44a1,1,0,0,0,1.63.43c1.07-1.17,1.36-3,2.2-4.35a15.84,15.84,0,0,1,3.86-4.18.76.76,0,0,0-.77-1.32Z"/><path class="cls-1" d="M331.46,430.13c16.5,1.07,33.13.87,49.67,1.14l49.67.81a1.13,1.13,0,0,0,0-2.25l-49.67-.89c-16.54-.3-33.14-1.07-49.67-.56a.88.88,0,0,0,0,1.75Z"/><path class="cls-1" d="M432.89,429.87a36.1,36.1,0,0,0-2.59,10.29c-.24,1.68,2.32,2.43,2.58.71a37.49,37.49,0,0,0,.52-10.93.28.28,0,0,0-.51-.07Z"/><path class="cls-1" d="M330,428.18a29,29,0,0,0-.33,5.67c0,1.76-.3,3.62.52,5.22a1.14,1.14,0,0,0,1.95,0c.75-1.65.39-3.44.3-5.22a29.11,29.11,0,0,0-.6-5.67,1,1,0,0,0-1.84,0Z"/><path class="cls-1" d="M333.55,442c32.46,1.81,65.21-.56,97.68-.51a.7.7,0,0,0,0-1.39c-32.47.5-65.25-1.4-97.68.86a.52.52,0,0,0,0,1Z"/><path class="cls-1" d="M328.88,439.35c-3.76,1.63-7.55,3.47-11.13,5.47-1.42.8-.16,2.91,1.27,2.17a122.44,122.44,0,0,0,10.65-6.29.78.78,0,0,0-.79-1.35Z"/><path class="cls-1" d="M316.27,447.32c-.17,4.05.15,8.13.34,12.18.07,1.61,2.65,1.57,2.49,0-.43-4.12-.73-8.3-1.51-12.36-.15-.77-1.29-.55-1.32.18Z"/><path class="cls-1" d="M318.71,461.77c9.63,1.56,20.11.54,29.85.55l29.69,0c20.45,0,40.92-.2,61.36.16a1.24,1.24,0,0,0,0-2.47c-20.44.32-40.91.07-61.36.06H348.56c-9.74,0-20.22-1-29.85.51a.6.6,0,0,0,0,1.16Z"/><path class="cls-1" d="M432.6,443.83c1.36,1.31,2.77,2.55,4.23,3.75,1.18,1,2.36,2.43,3.95,2.48a1,1,0,0,0,.94-1.23c-.42-1.57-2.31-2.49-3.54-3.44-1.42-1.1-2.87-2.14-4.37-3.12a1,1,0,0,0-1.21,1.56Z"/><path class="cls-1" d="M441.65,448.52l-.7-1.14a1,1,0,0,0-1.77.24,68.91,68.91,0,0,0-1.48,12.24c-.1,1.8,2.54,1.71,2.75,0a67.76,67.76,0,0,0,.63-12l-1.8.49.82,1.07c.68.89,2.17.11,1.55-.91Z"/><path class="cls-1" d="M321.27,448.79c9.19,1.3,18.81.67,28.07.72q15,.09,30,.08c20,0,39.95.34,59.91,0a.9.9,0,0,0,0-1.8c-20-.48-39.94-.26-59.91-.32-10,0-20-.07-30-.06-9.27,0-18.87-.66-28.07.6-.41.05-.41.77,0,.83Z"/><path class="cls-1" d="M474.69,411.66c-1.5,16.11.58,32.59.48,48.76a1.44,1.44,0,0,0,2.88,0c0-16.18-.61-32.65-2-48.76a.68.68,0,0,0-1.36,0Z"/><path class="cls-1" d="M460.21,403.48c1.71,1.25,3.4,2.53,5.1,3.8a29.41,29.41,0,0,0,5.17,3.67c1,.44,2.06-.71,1.21-1.56a28.87,28.87,0,0,0-5.14-3.45c-1.9-1.19-3.8-2.38-5.68-3.6-.72-.47-1.34.65-.66,1.14Z"/><path class="cls-1" d="M322.45,189.26a.13.13,0,0,0,0-.25.13.13,0,0,0,0,.25Z"/><path class="cls-1" d="M321.24,188.45c-.11,2.22-.13,4.44-.36,6.65-.21,2.05-1,4.17-.22,6.13.53,1.29,2.26,2.14,3.38.89,1.64-1.84,1.56-4.11,1.66-6.51a36.1,36.1,0,0,0-.51-7.7c-.43-2.32-3.84-1.62-3.95.54Z"/><path class="cls-1" d="M324.15,187.73c1.89-.57,8.33-1.93,7.56,2.1-.65,3.38-5.06,3-7.33,4.38-1.31.81-1.32,3.4.48,3.66,5,.71,11.62-3.43,10.94-9a6.2,6.2,0,0,0-3.87-4.87c-2.86-1.22-5.87-.45-8.65.6-1.92.72-1.18,3.76.87,3.14Z"/><path class="cls-1" d="M346.08,183.25a91,91,0,0,0-1.09,9.62c-.27,3.2-1,6.55-.29,9.71.35,1.65,2.63,1.4,3.11,0,.95-2.82.66-6,.76-9a90,90,0,0,0,.05-10c-.11-1.35-2.23-1.87-2.54-.34Z"/><path class="cls-1" d="M349.2,185.34l-.23-.41v.86l.09-.2h-2.17a21.84,21.84,0,0,0,4,4.2,56.11,56.11,0,0,0,4.58,3.87c1.79,1.33,4-1.58,2.37-3.07a54.26,54.26,0,0,0-4.68-3.73,20.8,20.8,0,0,0-4.86-3.11c-1.65-.62-2.27,2.45-.33,2.47h.25l-.74-.43.28.39a.83.83,0,0,0,1.43-.84Z"/><path class="cls-1" d="M356,191.57l-.76.06.66,2.44c2.75-1.31,5.18-3.51,7.59-5.35,1.79-1.36,4.86-2.85,5.24-5.2a1.17,1.17,0,0,0-1.11-1.45c-2.44-.2-4.53,2.39-6.31,3.82-2.36,1.91-5.07,3.76-7,6.12-1.05,1.28.62,3.06,1.85,1.86l.56-.55a1,1,0,0,0-.72-1.75Z"/><path class="cls-1" d="M366.09,183.32a49.76,49.76,0,0,0-2.38,15.93c.05,2.64,4.19,2.65,4.11,0a106,106,0,0,1,.53-15.63c.15-1.33-1.89-1.48-2.26-.3Z"/><path class="cls-1" d="M385.34,181.54c-1.48,2.72-2.89,5.47-4.27,8.24-1.15,2.31-2.83,4.63-2.82,7.28a1.52,1.52,0,0,0,2.57,1.06c2.13-1.77,2.9-5,4-7.5s2.24-5.25,3.28-7.92c.63-1.59-1.94-2.63-2.75-1.16Z"/><path class="cls-1" d="M386.5,181.91c3.78,4.91,1.87,11.85,5.75,16.81,1.46,1.88,4.63-.57,3.31-2.55-3.29-4.92-2.52-11.62-7.3-15.61-.89-.74-2.59.27-1.76,1.35Z"/><path class="cls-1" d="M383.33,193.29a16.09,16.09,0,0,0,4.1,0c1.42-.16,2.76-.2,3.89-1.12s.29-2.3-.71-2.69c-1.2-.47-2.69,0-3.92.26a16.27,16.27,0,0,0-3.68,1.17,1.33,1.33,0,0,0,.32,2.42Z"/><path class="cls-1" d="M402.29,182.73c.48,1.9,2.07,3.41,3.3,4.89,1,1.17,2.31,2.11,3.9,1.46,1.39-.57,2.18-2.21,3-3.4,1.07-1.63,2.59-3.16,2.18-5.19a1.21,1.21,0,0,0-1.46-.83c-2.26.48-3.55,3.71-4.71,5.52-.54.85,0,.56-.57.14s-1-1-1.49-1.43a8.23,8.23,0,0,0-3.06-2.21.86.86,0,0,0-1,1Z"/><path class="cls-1" d="M408.22,189.61c-.28,2.65-.89,5.3-1,8-.12,1.91,2.87,1.91,3,0,.13-2.64-.19-5.32-.16-8,0-1.16-1.66-1.11-1.77,0Z"/><path class="cls-1" d="M281,168.67q-.51,4.54-.93,9.09c-.13,1.39,2.12,1.42,2.19,0q.19-4.55.32-9.09c0-1-1.47-1-1.58,0Z"/><path class="cls-1" d="M282.28,180.15c2.42,0,4.85.13,7.27,0a1.23,1.23,0,0,0,0-2.46c-2.42-.08-4.85,0-7.27,0a1.18,1.18,0,0,0,0,2.36Z"/><path class="cls-1" d="M283.36,166.75c5.72,1.54,13.15-.13,19-.54l20.94-1.44,41.87-2.89Q407.09,159,449,156c1.51-.1,1.52-2.46,0-2.36q-41.86,2.92-83.75,5.85l-40.88,2.88-20.93,1.48c-6.22.43-14.29-.25-20,2.17a.36.36,0,0,0,0,.69Z"/><path class="cls-1" d="M447.78,156.55c.39,4.17.72,8.37,1.29,12.52.21,1.47,2.76,1.14,2.62-.36-.4-4.16-1.06-8.32-1.64-12.47-.18-1.28-2.4-1-2.27.31Z"/><path class="cls-1" d="M442.89,168.64a8.67,8.67,0,0,1-1.59-.27l-.42,1.53a15.14,15.14,0,0,0,3.56,0c1.3-.07,2.61-.11,3.91-.22s1.3-2.08,0-2-2.61.19-3.91.29a15.14,15.14,0,0,0-3.56.42.79.79,0,0,0,.42,1.53,9.38,9.38,0,0,1,1.59,0c.83,0,.78-1.16,0-1.26Z"/><path class="cls-1" d="M449.11,169c-2.15,5.34-3.94,10.83-5.8,16.27-.46,1.37,1.73,2,2.17.6,1.78-5.46,3.63-10.91,5.09-16.46.26-1-1.1-1.29-1.46-.41Z"/><path class="cls-1" d="M281.29,179c.32,3.9,2.56,8.17,6.31,9.79a1.24,1.24,0,0,0,1.25-2.14c-2.87-1.83-5-4.11-5.46-7.65-.16-1.3-2.21-1.36-2.1,0Z"/><path class="cls-1" d="M197.21,177.58c-2.31,3.76-1.28,9.66-1.37,14-.12,5.91-.26,11.82-.27,17.73a1.36,1.36,0,0,0,2.72,0c.22-5.91.3-11.82.41-17.73.07-4.34,1.33-10.11-.84-14a.38.38,0,0,0-.65,0Z"/><path class="cls-1" d="M197.66,179.3A22.36,22.36,0,0,1,212,171.64c1.33-.16,1.39-2.25,0-2.14a21,21,0,0,0-15.66,8.76c-.55.8.7,1.76,1.34,1Z"/><path class="cls-1" d="M212.62,165.48l-.09.32.44-.44c-.94.29-1,1.43-1.17,2.27-.2,1-.64,2.06.15,2.88a.89.89,0,0,0,1.07.13c1-.55.85-1.73.92-2.72s.34-1.95-.49-2.5l.31.54v-.32a.58.58,0,0,0-1.14-.16Z"/><path class="cls-1" d="M213.81,166.12a195,195,0,0,0,20.51-.46l-1-1c0,1.16,0,2.3,0,3.45a1.15,1.15,0,0,0,2.29,0c0-1.15-.09-2.29-.17-3.45a1.05,1.05,0,0,0-1.05-1A195.46,195.46,0,0,0,213.65,165c-.69.1-.48,1.14.16,1.17Z"/><path class="cls-1" d="M234.87,170.49a21.12,21.12,0,0,1,8.34,1.26c2.52,1,4.08,3.29,6.43,4.39a.89.89,0,0,0,1.29-1c-.65-2.73-4.1-4.54-6.51-5.52a13,13,0,0,0-9.71-.29.59.59,0,0,0,.16,1.15Z"/><path class="cls-1" d="M201.44,180.51c13.92,4.36,31.07,2.84,44.81-1.53a1,1,0,0,0-.53-1.94A114.54,114.54,0,0,1,223,180.61c-7.21.28-14.23-.65-21.39-1.1-.59,0-.67.84-.14,1Z"/><path class="cls-1" d="M248.83,176.41c-1.43,10-1.82,20.29-2.37,30.41-.09,1.67,2.52,1.67,2.6,0,.44-10,1.07-20.23.64-30.29,0-.47-.8-.64-.87-.12Z"/><path class="cls-1" d="M210,195.12c12.11,3.12,25.47,1.48,37.32-2a.72.72,0,0,0-.38-1.38c-12.36,3.3-24.21,3.11-36.82,2.47a.44.44,0,0,0-.12.87Z"/><path class="cls-1" d="M216,206.25a55.39,55.39,0,0,0,29-2c1-.34.59-1.95-.45-1.62A66.26,66.26,0,0,1,216.22,205c-.74-.08-.9,1.14-.18,1.3Z"/><path class="cls-1" d="M95.72,430c-.41-.52-1.26-.74-1.6-1.2-1.43-1.93,2-1.84,3.08-1.59a1,1,0,0,0,1.08-.44c.43-.58,1.17-.68,1.49-1.39.15-.32,0-1.74.17-1.86h-1c.69.3,0,1.94,0,2.65a1,1,0,0,0,.72.95c.49.14,1.16-.13,1.52,0,.7.23.7,1.15,1.18,1.69.34.39.9.4,1.23.71s.62.07.16.65c-.29.39-1.69.56-2.18.7a.52.52,0,0,0,0,1,3.78,3.78,0,0,0,4.06-1.55c.69-1.27-.61-1.42-1.49-1.89-1.36-.71-.94-1.7-1.92-2.41-.16-.12-.6-.19-.68-.26-.44-.45-.25.11-.33-.67-.17-1.59.37-2.61-1.46-3.38a1,1,0,0,0-.77.1,2.27,2.27,0,0,0-1.13,1.94c-.1.6.29.36-.1,1-.17.28-.84.72-1.07,1l1.08-.44c-2.11-.46-5-.5-5.87,2.11-.72,2.16,1.71,2.69,3.12,3.51.65.38,1.19-.45.76-1Z"/><path class="cls-1" d="M111.36,428a4.33,4.33,0,0,1-.76-1l-.13.95c.14-.14,1.54-1.64,1.56-1.61.31.66,1.2.26,1.25-.34.1-1.15.77-1.62,1.8-1.05a2.79,2.79,0,0,1,1.35,2.07c.17.84,1.42.61,1.45-.19a3.82,3.82,0,0,0-3-3.51c-1.85-.4-2.81,1-2.94,2.68l1.25-.34c-.89-1.93-3,.45-3.82,1.18a.75.75,0,0,0-.2.76,5.56,5.56,0,0,0,.86,1.47.84.84,0,1,0,1.33-1Z"/><path class="cls-1" d="M103.76,438.92c.74-.28-1.61-2.25.94-2.16a7.63,7.63,0,0,1,2,.46,1.17,1.17,0,0,0,1.41-.79c1.28-3.07,1.59-1.55,2.26-.66a1.06,1.06,0,0,0,1.8,0q.3-.61.63-1.23c1.6-.34,2.26.15,2,1.48.08,1.61-1.08,2.2-2.68,2.37-.74.08-1,1.21-.19,1.4,2.62.58,6.63-1.64,5.46-4.77a4.88,4.88,0,0,0-3.63-2.88c-1.85-.18-2.61,1.11-3.36,2.58h1.8c-.78-1.1-1.11-2.19-2.68-2.13s-2.86,1.61-3.47,3l1.29-.53c-2.35-.7-6.65-1-7.58,2.07s2.28,4.05,4.49,3c.68-.31.2-1.47-.5-1.21Z"/><path class="cls-1" d="M116.78,450c.13-1.34,1.44-2.76,2-4a44.11,44.11,0,0,1,2.17-4.55c1.44-2.43,3.5-5.65,5.7-7.44.49-.41-.15-1.22-.69-.89-2.6,1.63-4.62,5.08-6.13,7.67a49.06,49.06,0,0,0-2.39,5.09c-.65,1.43-1.67,2.55-1.76,4.12-.05.72,1,.7,1.1,0Z"/><path class="cls-1" d="M98.19,445.75l-.12-1.18-1.16-.15a24.6,24.6,0,0,0,1.5,2.88,19.06,19.06,0,0,1,1.17,3.38.74.74,0,0,0,1.42,0c.67-2.34-1.71-5-2.93-6.75-.45-.67-1.53-.07-1.1.64s.35,1.08.86,1.55a.26.26,0,0,0,.36-.37Z"/><path class="cls-1" d="M128.1,427.72c0-.22,0-.6.21-.73a.68.68,0,0,0,.23-.89,1.22,1.22,0,0,0-2.21.22,4.15,4.15,0,0,0,0,2.63,3.66,3.66,0,0,0,2.12,1.83,3,3,0,0,0,2.94,0,2.38,2.38,0,0,0,.66-2.92,4.81,4.81,0,0,0-1.28-1.66,3.12,3.12,0,0,0-2.13-1.05,1.37,1.37,0,0,0-1.22,1.82.74.74,0,0,0,1.33.17c.16-.27-.32.14-.24,0,0,.06-.16-.14-.06,0a.82.82,0,0,0,.2.12,5.4,5.4,0,0,1,.87.71,3.93,3.93,0,0,1,.53.61,1.53,1.53,0,0,1,.11.48c0,.22,0,0,0,0a2.64,2.64,0,0,1-2-.89c-.16-.32,0-.82,0-1.19a2.19,2.19,0,0,0,0-.28s-.29.41-.29.36l.27.15c0,.07,0,.14,0,.21s0,.21,0,.31a0,0,0,1,0,.06,0Z"/><path class="cls-1" d="M124.88,427.72c-2-1.66-4.16.77-4.25,2.94-.15,3.91,4.79,3.07,7.06,2.27a.72.72,0,0,0-.19-1.4c-3.27,0-2.66,4.83-.22,5.8,1.44.57,2.43-.16,3.11-1.38.24-.43.39-1.83.76-2s1,.41,1.39.5c.69.18.69.45,1.46.2,1.66-.54,2.56-3.83,2.57-5.32,0-2,.39-3.91-1.3-5.36a7.41,7.41,0,0,0-2.52-1.2c-1.3-.47-2-1.51-3.18-2.06-2.23-1-2.95.45-4.38,1.85-.68.66.21,1.88,1,1.34.42-.27,1.7-1.8,1.95-1.87.9-.24,2.34,2,3.35,2.41,2.12,1,2.67-.27,3.31,3.12.24,1.29.35,3.3-.39,4.43-1.48,2.25-2.16-.44-3.88.72-.47.31-.53.8-.81,1.22-.53.79-.21,2.94-2.46,1.79-.69-.36-1.16-2.78.21-2.77l-.19-1.4a8.73,8.73,0,0,1-2.78.69c-4.59-.11-1.46-4.34-.55-3.62.63.5,1.54-.37.9-.9Z"/><path class="cls-1" d="M143.56,446a.06.06,0,0,0,0-.11.06.06,0,0,0,0,.11Z"/><path class="cls-1" d="M143,446.27a30.13,30.13,0,0,1,1.71,8.32c.1.85,1.42.89,1.36,0a25.2,25.2,0,0,0-1.93-9c-.36-.78-1.47-.1-1.14.67Z"/><path class="cls-1" d="M137.53,439.17c-1.94.47-5.05,3.38-2.81,5.29s4.91-2.33,5.35-4.16l-1.12.3c1.58,1.86,4.06,2.14,5.23-.22.6-1.23.46-1,1.52-1.41.29-.1.62-.11.92-.24a3.19,3.19,0,0,0,1.86-2.47c.14-2.25-2.82-3.71-4.76-3.42-2.46.37-3.15,3-2.66,5.09a.79.79,0,0,0,.75.57c2.65.17,1-3-.24-3.8a2.13,2.13,0,0,0-2.26-.17c-1.05.7-.52,2.21-1.35,3l.85-.11c-1.72-.75-2.24.59-2.31,2.16,0,.89,1.26.85,1.36,0a1.31,1.31,0,0,1,.24-.93.76.76,0,0,0,.86-.12c.5-.47.45-1,.76-1.53s-.24-1.46,1.12-1c.44.14.42.95,1,1l.75.57c-.47-2.06,1.59-4,3.43-2.56.93.27.89.75-.12,1.43-.13.73-.47,1.09-1,1.1-.18.12-.46,0-.65.14a3.27,3.27,0,0,0-.81,1c-.19.33-.22.81-.46,1.1a2.33,2.33,0,0,1-3-.08.67.67,0,0,0-1.12.3c-.19.82-.81,2.75-1.8,3-.33.41-.62.27-.89-.44-.75-.33-.84-.69-.29-1.08a3.62,3.62,0,0,1,1.94-1.45.4.4,0,0,0-.21-.77Z"/><path class="cls-1" d="M148.65,445.8c1-1.66,1.55-3.29,3.1-4.6,1.71-1.46,3.8-3.39,6.21-2.84a.65.65,0,0,0,.34-1.25c-2.42-.65-4.29.66-6.13,2.11a16.3,16.3,0,0,0-2.83,2.61,29.55,29.55,0,0,0-1.77,3.33c-.42.69.66,1.32,1.08.64Z"/><path class="cls-1" d="M156.75,438.19c-.67,5.14-7.5,4.41-10.44,7.31a.62.62,0,0,0,.27,1c1.22.41,1.91-.72,3-1.11a26.6,26.6,0,0,0,4.05-1.5c2.16-1.17,4.08-3.16,4-5.73,0-.61-.85-.57-.93,0Z"/><path class="cls-1" d="M136.45,450.75c-1.85-.56-3.69-1.29-5.57-1.73a29.77,29.77,0,0,0-3.24-.85c-2.09-.22-2.14,1.95-1.13,3.17,1.55,1.88,3,3.59,5.54,4.05,1.82.32,4.83.06,5.82-1.76.49-.91-.87-1.71-1.38-.81-.94,1.65-4.45,1-5.69.35a10.61,10.61,0,0,1-2.87-2.91c-.59-.78.31.08.81.21.74.19,1.51.23,2.25.42a27.24,27.24,0,0,0,5.28,1.18c.77.05.88-1.1.18-1.32Z"/><path class="cls-1" d="M146.92,429.08c.07-2.52,2-5.38,4.09-6.79.71-.49,3.29-1.58,3.87-.46.3.56-.84,2.15-1.15,2.65-1.21,1.92-2.78,2.71-4.75,3.61-1,.44-2.42,1.11-2.35,2.36,0,.61,1,.82,1.12.15.22-1.16,2.29-1.61,3.21-2a8.27,8.27,0,0,0,2.95-2.26c1-1.22,2.89-3.9,1.79-5.5-1.32-1.92-4.65-.49-6,.64-2.1,1.76-4.27,4.77-4,7.63a.63.63,0,0,0,1.26,0Z"/><path class="cls-1" d="M111.88,413.6c-.14,2.89-.5,5.66,1.35,8.12a8.31,8.31,0,0,0,2.34,2.12c.28.17,2.81,1,2.82,1,.32.62,1.19.28,1.23-.33l0-.37a.77.77,0,0,0-.55-.73c-2-.7-3.82-1.43-5-3.32s-.82-4.35-.85-6.51a.71.71,0,0,0-1.41,0Z"/><path class="cls-1" d="M112.89,414.15c1.61.5,3.18,2.33,4.1,3.73s1,3.32,1.38,5a.62.62,0,0,0,1.19,0,7.67,7.67,0,0,0-1.23-6c-1.27-1.65-3-3.47-5.14-3.8a.58.58,0,0,0-.3,1.11Z"/><path class="cls-1" d="M170,427.26a1.29,1.29,0,0,0-.85-1.46c-.62-.17-1.25.38-1.61.81-1.12,1.37-1.05,3.89.87,4.48,1.5.47,3.68-.24,4.18-1.85.59-1.9-1.52-3.66-3.31-3.14a.74.74,0,0,0,.2,1.44c.52,0,1.59.48,1.48,1.15s-1.16.86-1.66.85c-.9,0-1-.8-.81-1.55a1.35,1.35,0,0,1,.4-.73c.08-.08.21-.12.27-.19l.14-.08c-.33-.09-.44,0-.34.27a.52.52,0,0,0,1,0Z"/><path class="cls-1" d="M165.1,429.05c-1.9-.63-2.16.84-2.43,2.38-.38,2.1.28,3.7,2.48,4.4a5.33,5.33,0,0,0,1.26.12c.63.05.53,0,.85.59a2.32,2.32,0,0,0,1.51,1.39,2.35,2.35,0,0,0,3-2.6c-.11-.55-.9-.38-.94.13a1.31,1.31,0,0,1-2.34.72c-.21-.25-.29-.64-.48-.91-.44-.66-.63-.6-1.44-.58-1.45,0-2.94-.57-2.95-2.33,0-.75.06-2.67,1.18-2.33.63.19.89-.78.27-1Z"/><path class="cls-1" d="M172.25,433.72c1.45,0,2.56-.1,3.42-1.37a4.35,4.35,0,0,0,.79-2.35c0-.91-.89-1.73-.83-2.54l-.59.59a2.62,2.62,0,0,0,2.48-2.93c-.14-1.72-1.91-2.57-3.4-2.94-2.36-.6-6.71.12-4.25,3.25l1.21-1.21c-1.73-1.52-5.11-3-6.42-.34-.77,1.55.24,4.45,2.06,2.67a.75.75,0,0,0-.15-1.16,5,5,0,0,0-4-.58.67.67,0,0,0-.5.5,4,4,0,0,0,1.05,3.37c.52.63,1.63-.21,1.14-.87-.35-.49-1-1.07-.54-1.6s1.63,0,2,.34v-1c0-1.19.66-1.7,1.92-1.54a4,4,0,0,1,2.14,1.28c.64.87,2.1.06,1.47-.86s.72-.94,1.5-.92a3.89,3.89,0,0,1,1,.11,3.19,3.19,0,0,1,.44.13c1.18.27,1.46,1.33.87,3.17a.59.59,0,0,0-.58.58c-.06.89.24.49.33,1.25.32,2.78.09,3.85-2.54,3.93-.69,0-.7,1.1,0,1.08Z"/><path class="cls-1" d="M179.93,434.55c.11-4.56,3.72-8,7.94-9.07.56-.13.46-1.06-.13-1-4.74.39-8.6,5.54-8.59,10.09a.39.39,0,0,0,.78,0Z"/><path class="cls-1" d="M187.21,425.13c.51,2.24-1.06,3.89-2.36,5.57-1,1.28-2.49,1.72-3.49,2.93-.44.53.13,1.47.78,1,.81-.55,1.77-.94,2.53-1.56a10.51,10.51,0,0,0,1.92-2.47c1.34-2,2.32-3.41,1.67-5.78a.55.55,0,0,0-1,.29Z"/><path class="cls-1" d="M170.7,444.87c-1.35-1.76-3.45-.74-4.94.32a11.45,11.45,0,0,0-2.57,2.39c-.91,1.22-1.11,2.84-1.86,4.16-.39.7.42,1.6,1.14,1.14,2.94-1.88,13-3.56,10.29-9.07a.59.59,0,0,0-1.08.46c1.39,4.15-7.56,5.74-10.05,7.18l1.14,1.13c1-1.74,1.28-3.7,2.75-5.18,1.06-1.08,3.14-3.24,4.75-2.11.25.18.62-.18.43-.42Z"/><path class="cls-1" d="M174.76,439.49c1.56.91,3.62,4.06,4.42,5.53,1.56,2.88,1.63,6,2,9.11a.68.68,0,0,0,1.35,0,17,17,0,0,0-2.08-9.83c-1.11-1.88-3.2-4.68-5.2-5.58-.51-.23-1,.47-.45.77Z"/><path class="cls-1" d="M187.25,441.35c1.64-1.93,2.65-4.31,4.23-6.3a21.85,21.85,0,0,1,7.5-5.88c.74-.37.09-1.4-.63-1.08a21.41,21.41,0,0,0-7,5.17c-2,2.18-3.06,5-4.93,7.24-.5.59.35,1.45.85.85Z"/><path class="cls-1" d="M201.61,421.67c-1-1.48-2.13.1-2.21,1.42a2.22,2.22,0,0,0,1.23,2.16c1.39.75,2.12-.26,3.29-.85L203,424c.22,1.21-.27,4.33,1.89,4.18,1.39-.1,2-2,2.17-3.15l-.61.61c2.06-.19,3.18-1.13,2.12-3.32-.65-1.33-2.52-2.86-3.89-1.64a.76.76,0,0,0-.11.9l.23.42a.77.77,0,0,0,.85.35c4.28-1.28-4.11-8.68-5.11-3.72l1.68-.22c-.75-1-1.72-1.77-3-1.13a3.13,3.13,0,0,0-1.68,3.12c.07.58,1,1,1.27.34.15-.32,1.06-2.49,1.84-1.4a.93.93,0,0,0,1.68-.22c.31-1.5,3.2,1.69,2.94,1.77l.86.35-.25-.41-.12.9c.29-.31,3.79,2.34.71,2.7a.62.62,0,0,0-.6.6c-.1.8-.72,2.74-1.56.55a16.43,16.43,0,0,1-.09-1.91.64.64,0,0,0-.92-.37c-.7.35-2.32,1.5-2.77-.24,0-.18.29-1.65.7-1.12.17.22.56-.07.39-.3Z"/><path class="cls-1" d="M96.81,430.3c-1.47-.41-2.32,1-2.58,2.26a2.14,2.14,0,0,0,1.92,2.82c1.31.12,3.21-.07,4.17-1.07a2.09,2.09,0,0,0,.44-2.06,18.22,18.22,0,0,0-.87-2.1c-.2-.45-.79-.32-1,0-.48.67-.13,1.39.19,2.05.21.45.41.81,0,1.17a2.93,2.93,0,0,1-1.33.42c-.62.09-1.88.37-2-.42-.08-.37.3-1.95.84-1.86.78.13,1.13-1,.33-1.21Z"/><path class="cls-1" d="M196.11,439.37a1.82,1.82,0,0,0-2.06.78,11,11,0,0,0-1.67,2.14c-.72,1.79,1.21,2.92,2.74,3s3.68-1.13,3.84-2.91c.08-.8-.88-1.4-1.47-1.77a4.67,4.67,0,0,0-2.47-.85.72.72,0,0,0-.19,1.4,5.5,5.5,0,0,1,2.52,1.55v-.88c-.49,1.16-1.58,2.05-2.89,1.44-.74-.34-.21-.69.17-1.17s.73-1.46,1.3-1.42a.67.67,0,0,0,.18-1.31Z"/><path class="cls-1" d="M197,445.64l-.29.31a.47.47,0,0,0-.12.45c.59,1.43,1.7,4,3.75,3.3,2.32-.82,2.27-4.2,1.32-5.89l-.41,1c7.66-1.17-3.21-10.09-5.05-5a.77.77,0,0,0,.2.75,2,2,0,1,0,2.76-3c-1-.93-3.28-1.91-4.64-1.61s-2.06,1.38-1.17,2.56l.91-.91c-4.31-3.1-6.22,4.07-2.71,4.65a.58.58,0,0,0,.44-1.05c-1.85-1.11-4.3-.36-4.19,1.93.13,2.71,1.66,4.28,4.19,2.82l-.85-.66c-.33,1.18-2.28,2.61-1.31,4,.67,1,2.16.52,3,.17.52-.21.31-1.05-.23-.85-1,.37-1.13.64-1.5-.57-.32-1-.06-1.47.86-2.11a.59.59,0,0,0-.59-1,1.82,1.82,0,0,1-2.3-1.38c-.27-1.17,1.13-2.52,2.19-1.46l.56-1c-2.59-.81.09-4.66,1.5-2.63.4.58,1.48.25,1.21-.51-.35-1,2.62.15,2.81.31.64.54.41,1.2.94,1.51s1.49.3,2.1.61c1.72.89,3,2.28.47,3a.69.69,0,0,0-.41,1c.38.57.82,5.07-1.71,3.51-.25-.15-1.29-1.58-1.1-1.87a.42.42,0,0,0-.66-.51Z"/><path class="cls-1" d="M199.81,433.4c-.41-.51-1.26-.73-1.6-1.2-1.43-1.92,2-1.84,3.08-1.59a1,1,0,0,0,1.08-.44c.6-.8,1.76-.92,1.61-2.2,0-.34-.13-1.06-.61-.86a7.52,7.52,0,0,0-.38,2.46,1,1,0,0,0,.72.94c.48.14,1.15-.13,1.5,0,.7.22.71,1.16,1.19,1.7.34.39.9.41,1.23.72s.62.06.16.65c-.29.38-1.69.56-2.18.69a.52.52,0,0,0,0,1c1.19.38,4.9-.67,4.21-2.48-.29-.74-1.3-.68-1.87-1-1.39-.83-.69-1.1-1.33-2-.39-.54-.71-.24-1-.61-.44.08-.58-.05-.42-.41a2.31,2.31,0,0,0,.21-.81,3.05,3.05,0,0,0-.23-1.81,1.66,1.66,0,0,0-1.63-1,2.18,2.18,0,0,0-1.83,1.72c-.1.47.3.9.11,1.35,0,.12-.95.87-1.07,1l1.08-.44c-2.11-.47-5-.51-5.87,2.1-.72,2.17,1.71,2.69,3.12,3.52.65.37,1.19-.46.76-1Z"/><path class="cls-1" d="M215.45,431.43a4.38,4.38,0,0,1-.76-1.06l-.13.95c.14-.14,1.54-1.64,1.56-1.61.31.66,1.2.26,1.25-.34.1-1.15.77-1.62,1.8-1.05a2.8,2.8,0,0,1,1.35,2.08c.17.83,1.42.6,1.45-.2a3.8,3.8,0,0,0-3-3.5c-1.85-.4-2.81,1-2.94,2.67l1.25-.34c-.89-1.93-3,.46-3.82,1.19a.74.74,0,0,0-.2.76,5.9,5.9,0,0,0,.86,1.47.84.84,0,1,0,1.33-1Z"/><path class="cls-1" d="M207.85,442.32c.74-.29-1.61-2.25.94-2.16a7.26,7.26,0,0,1,2,.46,1.19,1.19,0,0,0,1.41-.8c1.28-3.06,1.59-1.55,2.26-.66a1.06,1.06,0,0,0,1.8,0q.3-.62.63-1.23c1.6-.34,2.26.16,2,1.48.08,1.61-1.08,2.2-2.68,2.37-.74.08-1,1.22-.19,1.41,2.62.57,6.63-1.64,5.46-4.77a4.91,4.91,0,0,0-3.63-2.89c-1.85-.18-2.61,1.11-3.36,2.59h1.8c-.78-1.11-1.11-2.2-2.68-2.13s-2.86,1.61-3.47,2.95l1.29-.53c-2.35-.7-6.65-1-7.58,2.08s2.28,4.05,4.49,3c.68-.31.2-1.47-.5-1.2Z"/><path class="cls-1" d="M220.87,453.43c.13-1.34,1.44-2.77,2-4a44.11,44.11,0,0,1,2.17-4.55c1.44-2.43,3.5-5.65,5.7-7.44.49-.41-.15-1.22-.69-.88-2.6,1.62-4.62,5.07-6.13,7.66a48.26,48.26,0,0,0-2.39,5.1c-.65,1.42-1.67,2.55-1.76,4.12-.05.71,1,.69,1.1,0Z"/><path class="cls-1" d="M202.28,449.15l-.12-1.18-1.16-.16a24,24,0,0,0,1.5,2.89,18.79,18.79,0,0,1,1.17,3.38.74.74,0,0,0,1.42,0c.67-2.34-1.71-5-2.93-6.76-.45-.67-1.53-.06-1.1.65s.35,1.08.86,1.54a.25.25,0,0,0,.36-.36Z"/><path class="cls-1" d="M232.19,431.11c0-.21,0-.59.21-.73a.68.68,0,0,0,.23-.89,1.22,1.22,0,0,0-2.21.23,4.15,4.15,0,0,0,0,2.63,3.73,3.73,0,0,0,2.12,1.83,3,3,0,0,0,2.94,0,2.38,2.38,0,0,0,.66-2.92,4.78,4.78,0,0,0-1.28-1.65,3.12,3.12,0,0,0-2.13-1.05,1.36,1.36,0,0,0-1.22,1.81.74.74,0,0,0,1.33.18c.16-.27-.32.13-.24,0,0,.06-.16-.14-.06,0s.15.09.2.13a4.91,4.91,0,0,1,.87.71,3.18,3.18,0,0,1,.53.61,1.53,1.53,0,0,1,.11.47c0,.22,0,0,.05,0a2.64,2.64,0,0,1-2-.89c-.16-.31,0-.81,0-1.18a2.36,2.36,0,0,0,0-.29,2.38,2.38,0,0,1-.29.37l.27.14c0,.07,0,.14,0,.21s0,.22,0,.31a0,0,0,1,0,.06,0Z"/><path class="cls-1" d="M229,431.11c-2-1.65-4.16.77-4.25,2.94-.15,3.92,4.79,3.07,7.06,2.27a.72.72,0,0,0-.19-1.4c-3.27,0-2.66,4.84-.22,5.8,1.44.57,2.43-.16,3.11-1.38.24-.42.39-1.83.76-2s1,.41,1.39.51c.69.18.69.45,1.46.19,1.66-.54,2.56-3.83,2.57-5.32,0-2,.39-3.91-1.3-5.35a7.23,7.23,0,0,0-2.52-1.2c-1.3-.47-2-1.51-3.18-2.06-2.23-1-2.95.45-4.38,1.84-.68.67.21,1.88,1,1.34.42-.27,1.7-1.8,1.95-1.86.9-.24,2.34,1.95,3.35,2.41,2.12,1,2.67-.27,3.31,3.12.24,1.28.35,3.3-.39,4.43-1.48,2.24-2.16-.44-3.88.71-.47.31-.53.8-.81,1.23-.53.79-.21,2.93-2.46,1.78-.69-.35-1.16-2.78.21-2.76l-.19-1.4a8.73,8.73,0,0,1-2.78.69c-4.59-.12-1.46-4.34-.55-3.62.63.5,1.54-.38.9-.91Z"/><path class="cls-1" d="M247.65,449.38a.06.06,0,0,0,0-.11.06.06,0,0,0,0,.11Z"/><path class="cls-1" d="M247.08,449.66a30.2,30.2,0,0,1,1.71,8.32c.1.85,1.42.89,1.36,0a25.14,25.14,0,0,0-1.93-9c-.36-.78-1.47-.1-1.14.66Z"/><path class="cls-1" d="M241.62,442.57c-1.94.46-5.05,3.37-2.81,5.28s4.91-2.33,5.35-4.15L243,444c1.58,1.85,4.06,2.14,5.23-.22.6-1.24.46-1,1.52-1.42.29-.1.62-.11.92-.23a3.19,3.19,0,0,0,1.86-2.48c.14-2.24-2.82-3.7-4.76-3.41-2.46.37-3.15,3-2.66,5.08a.8.8,0,0,0,.75.58c2.65.17,1-3-.24-3.8a2.11,2.11,0,0,0-2.26-.17c-1.05.69-.52,2.21-1.35,3l.85-.11c-1.72-.76-2.24.58-2.31,2.15,0,.9,1.26.85,1.36,0a1.31,1.31,0,0,1,.24-.93.76.76,0,0,0,.86-.11c.5-.48.45-1,.76-1.54s-.24-1.46,1.12-1c.44.14.42.95,1,1l.75.57c-.47-2.06,1.59-4,3.43-2.56.93.28.89.75-.12,1.44-.13.72-.47,1.09-1,1.09-.18.13-.46,0-.65.14a3.53,3.53,0,0,0-.81,1c-.19.33-.22.82-.46,1.1a2.33,2.33,0,0,1-3-.07.67.67,0,0,0-1.12.29c-.19.82-.81,2.75-1.8,3-.33.42-.62.27-.89-.44-.75-.32-.84-.68-.29-1.07a3.53,3.53,0,0,1,1.94-1.45.4.4,0,0,0-.21-.77Z"/><path class="cls-1" d="M252.74,449.19c1-1.65,1.55-3.28,3.1-4.6,1.71-1.45,3.8-3.39,6.21-2.83a.65.65,0,0,0,.34-1.26c-2.42-.64-4.29.67-6.13,2.11a16,16,0,0,0-2.83,2.62,27.92,27.92,0,0,0-1.77,3.33.63.63,0,0,0,1.08.63Z"/><path class="cls-1" d="M260.84,441.59c-.67,5.14-7.5,4.41-10.44,7.3a.62.62,0,0,0,.27,1c1.22.41,1.91-.72,3-1.1a27.75,27.75,0,0,0,4.05-1.51c2.16-1.17,4.08-3.16,4-5.72a.47.47,0,0,0-.93,0Z"/><path class="cls-1" d="M240.54,454.15c-1.85-.56-3.69-1.3-5.57-1.73a29.83,29.83,0,0,0-3.24-.86c-2.09-.22-2.14,2-1.13,3.18,1.55,1.87,3,3.59,5.54,4,1.82.33,4.83.06,5.82-1.76.49-.9-.87-1.71-1.38-.81-.94,1.66-4.45,1-5.69.36a10.61,10.61,0,0,1-2.87-2.91c-.59-.78.31.07.81.2.74.2,1.51.23,2.25.42a26.53,26.53,0,0,0,5.28,1.18c.77.05.88-1.1.18-1.31Z"/><path class="cls-1" d="M251,432.48c.07-2.52,2-5.39,4.09-6.8.71-.49,3.29-1.58,3.87-.46.3.57-.84,2.16-1.15,2.65-1.21,1.93-2.78,2.72-4.75,3.62-1,.43-2.42,1.1-2.35,2.35,0,.61,1,.83,1.12.16.22-1.17,2.29-1.61,3.2-2a8.3,8.3,0,0,0,3-2.25c1-1.23,2.89-3.9,1.79-5.51-1.32-1.92-4.65-.48-6,.65-2.1,1.75-4.27,4.77-4,7.63a.63.63,0,0,0,1.26,0Z"/><path class="cls-1" d="M216,417c-.14,2.9-.5,5.66,1.35,8.13a8.43,8.43,0,0,0,2.34,2.11c.28.17,2.8,1,2.82,1,.32.61,1.19.27,1.23-.34l0-.36a.78.78,0,0,0-.55-.74c-2-.7-3.82-1.43-5-3.32s-.82-4.35-.85-6.51a.71.71,0,0,0-1.41,0Z"/><path class="cls-1" d="M217,417.54c1.61.51,3.18,2.34,4.1,3.73s1,3.33,1.38,5a.62.62,0,0,0,1.19,0,7.65,7.65,0,0,0-1.23-6c-1.27-1.66-3-3.47-5.14-3.8a.57.57,0,0,0-.3,1.1Z"/><path class="cls-1" d="M274.13,430.66a1.28,1.28,0,0,0-.85-1.46c-.62-.17-1.25.37-1.61.81-1.12,1.37-1.05,3.88.87,4.48,1.5.46,3.68-.25,4.18-1.86.59-1.9-1.52-3.66-3.31-3.14a.74.74,0,0,0,.2,1.45c.52,0,1.59.48,1.48,1.14s-1.16.87-1.66.86c-.9,0-1-.81-.81-1.56a1.39,1.39,0,0,1,.4-.73,3.15,3.15,0,0,0,.27-.19.39.39,0,0,0,.14-.08c-.33-.09-.44,0-.34.28a.52.52,0,0,0,1,0Z"/><path class="cls-1" d="M269.19,432.44c-1.9-.62-2.16.84-2.43,2.39-.38,2.1.28,3.69,2.48,4.39a5.33,5.33,0,0,0,1.26.12c.63.05.53,0,.85.59a2.36,2.36,0,0,0,4.54-1.2c-.11-.56-.9-.38-.94.12a1.31,1.31,0,0,1-2.34.73c-.21-.25-.29-.64-.48-.92-.44-.66-.63-.6-1.44-.58-1.45,0-2.94-.57-2.95-2.32,0-.76.06-2.68,1.18-2.34.63.19.89-.77.27-1Z"/><path class="cls-1" d="M276.34,437.12c1.45,0,2.56-.1,3.42-1.37a4.38,4.38,0,0,0,.79-2.35c0-.92-.89-1.73-.83-2.54l-.59.58a2.61,2.61,0,0,0,2.48-2.93c-.14-1.72-1.91-2.56-3.4-2.94-2.36-.59-6.71.12-4.25,3.25l1.21-1.2c-1.73-1.53-5.11-3-6.42-.35-.77,1.55.24,4.45,2.06,2.67a.74.74,0,0,0-.15-1.15,5.08,5.08,0,0,0-4-.59.7.7,0,0,0-.5.5,4,4,0,0,0,1.05,3.38c.52.63,1.63-.21,1.14-.88-.35-.49-1-1.06-.54-1.59s1.63,0,2,.33v-1c0-1.19.66-1.7,1.92-1.54a4,4,0,0,1,2.14,1.29c.64.86,2.1.05,1.47-.86s.72-1,1.5-.93a3.9,3.9,0,0,1,1,.12,3.17,3.17,0,0,1,.44.12c1.18.28,1.46,1.33.87,3.17a.6.6,0,0,0-.58.59c-.06.89.24.48.33,1.25.32,2.78.09,3.84-2.54,3.93a.54.54,0,0,0,0,1.08Z"/><path class="cls-1" d="M284,437.94c.11-4.56,3.72-8,7.94-9.06.56-.14.46-1.07-.13-1-4.74.39-8.6,5.53-8.59,10.08a.39.39,0,0,0,.78,0Z"/><path class="cls-1" d="M291.3,428.52c.51,2.25-1.06,3.9-2.36,5.57-1,1.29-2.49,1.73-3.49,2.94-.44.52.13,1.46.78,1,.81-.55,1.77-.95,2.53-1.57a10.45,10.45,0,0,0,1.92-2.46c1.34-2,2.32-3.42,1.67-5.79a.55.55,0,0,0-1.05.29Z"/><path class="cls-1" d="M274.79,448.26c-1.35-1.76-3.45-.73-4.94.32a11.69,11.69,0,0,0-2.57,2.39c-.91,1.23-1.11,2.84-1.86,4.17a.84.84,0,0,0,1.14,1.13c2.94-1.87,13-3.56,10.29-9.06-.29-.61-1.3-.18-1.08.46,1.39,4.14-7.56,5.73-10,7.17l1.13,1.14c1.06-1.74,1.29-3.7,2.76-5.19,1.06-1.07,3.14-3.24,4.75-2.1.25.17.62-.18.43-.43Z"/><path class="cls-1" d="M278.85,442.88c1.56.91,3.62,4.06,4.42,5.54,1.56,2.87,1.63,5.94,2,9.11a.68.68,0,0,0,1.35,0,17,17,0,0,0-2.08-9.83c-1.11-1.89-3.2-4.69-5.2-5.59-.51-.22-1,.48-.45.77Z"/><path class="cls-1" d="M291.34,444.75c1.64-1.93,2.65-4.32,4.23-6.31a22,22,0,0,1,7.5-5.88c.74-.36.09-1.4-.63-1.08a21.44,21.44,0,0,0-7,5.18c-2,2.17-3.06,5-4.93,7.23-.5.59.35,1.45.85.86Z"/><path class="cls-1" d="M305.7,425.06c-1-1.47-2.13.1-2.21,1.42a2.22,2.22,0,0,0,1.23,2.16c1.39.76,2.12-.25,3.29-.84l-.91-.37c.22,1.21-.27,4.32,1.89,4.17,1.39-.09,2-2,2.17-3.14l-.61.6c2.06-.19,3.18-1.13,2.12-3.32-.65-1.32-2.52-2.85-3.89-1.64a.77.77,0,0,0-.11.91l.23.41a.75.75,0,0,0,.85.35c4.28-1.28-4.11-8.67-5.11-3.71l1.68-.22c-.75-1-1.72-1.77-3-1.14a3.13,3.13,0,0,0-1.68,3.12c.07.59,1,1,1.27.35.15-.33,1.06-2.5,1.84-1.41.42.59,1.5.62,1.68-.21.31-1.5,3.2,1.68,2.94,1.76l.86.35-.25-.41-.12.91c.29-.32,3.79,2.34.71,2.69a.62.62,0,0,0-.6.61c-.1.79-.72,2.73-1.56.54a16.36,16.36,0,0,1-.09-1.9.63.63,0,0,0-.92-.37c-.7.35-2.32,1.5-2.77-.25,0-.18.29-1.65.7-1.11.17.22.56-.08.39-.31Z"/><path class="cls-1" d="M200.9,433.69c-1.47-.4-2.32,1-2.58,2.26a2.13,2.13,0,0,0,1.92,2.82c1.31.12,3.21-.07,4.17-1.07a2.09,2.09,0,0,0,.44-2.06,18.22,18.22,0,0,0-.87-2.1c-.2-.44-.79-.32-1,0-.49.67-.13,1.39.19,2.06.21.44.41.81,0,1.17a2.92,2.92,0,0,1-1.33.41c-.62.09-1.88.38-2.05-.42-.08-.37.3-1.95.84-1.86a.63.63,0,0,0,.33-1.21Z"/><path class="cls-1" d="M300.2,442.76a1.82,1.82,0,0,0-2.06.78,11.09,11.09,0,0,0-1.67,2.15c-.72,1.78,1.21,2.91,2.74,3s3.68-1.13,3.84-2.9c.08-.8-.88-1.4-1.47-1.78a4.67,4.67,0,0,0-2.47-.85.72.72,0,0,0-.19,1.4,5.58,5.58,0,0,1,2.52,1.55v-.88c-.49,1.16-1.58,2-2.89,1.45-.74-.34-.21-.7.17-1.18s.73-1.45,1.3-1.41a.67.67,0,0,0,.18-1.32Z"/><path class="cls-1" d="M301.09,449l-.29.32a.45.45,0,0,0-.12.44c.59,1.44,1.7,4,3.75,3.3,2.32-.82,2.27-4.2,1.32-5.89l-.41,1c7.66-1.17-3.21-10.09-5-5a.78.78,0,0,0,.2.75,2,2,0,1,0,2.76-3c-1-.92-3.28-1.91-4.64-1.6s-2.06,1.38-1.17,2.56l.91-.91c-4.31-3.11-6.22,4.06-2.71,4.65a.58.58,0,0,0,.44-1.06c-1.85-1.11-4.3-.36-4.19,1.94.13,2.71,1.66,4.28,4.19,2.81l-.85-.66c-.33,1.18-2.28,2.61-1.31,4,.67,1,2.16.53,3,.17.52-.2.31-1.05-.23-.85-1,.38-1.13.64-1.5-.56-.32-1-.06-1.48.86-2.12a.58.58,0,0,0-.59-1,1.83,1.83,0,0,1-2.3-1.39c-.27-1.16,1.13-2.51,2.19-1.45l.56-1c-2.59-.82.09-4.66,1.5-2.63.4.58,1.48.24,1.21-.51-.35-1,2.62.15,2.81.3.64.55.41,1.21.94,1.51s1.49.3,2.1.62c1.72.89,3,2.27.47,3a.7.7,0,0,0-.41,1c.38.57.82,5.08-1.71,3.52-.25-.15-1.29-1.58-1.1-1.88a.42.42,0,0,0-.66-.51Z"/><path class="cls-1" d="M81.74,462.72c-1.19-.59-2.37-1.17-3.57-1.74l-.34,1.27c19.83,1.89,40.22,1.1,60.13,1.13,20.09,0,40.17-.08,60.26-.22s40.17-.29,60.25-.27q15.13,0,30.28.18c9.91.11,20,.82,29.86.37a1,1,0,0,0,0-2.05c-9.86-.95-20-.6-29.86-.71q-15.13-.17-30.28-.16c-20.08,0-40.17.14-60.25.31s-40.17.34-60.26.35-40.18-1.17-60.13-.29a.69.69,0,0,0-.18,1.34c1.29.35,2.58.68,3.87,1,.3.07.51-.37.22-.52Z"/><path class="cls-1" d="M439.2,462c5.51,1.08,11.56.32,17.16.32,6.31,0,12.61,0,18.92-.23,1.33,0,1.33-2.14,0-2.07-6.31.28-12.61.37-18.92.45-5.59.07-11.74-.55-17.16,1a.29.29,0,0,0,0,.56Z"/><path class="cls-1" d="M76.49,67.89a3.78,3.78,0,0,0-5.17,2.16c-.78,2.53,1.69,4.88,4.13,4.61l-.63-1.52a2.23,2.23,0,1,0,3.58,1.42l-1.16.89c2.4.33,5-1.44,4.61-4.09-.24-1.89-3-4.47-4.79-2.8a.66.66,0,0,0,.13,1c.92.52,2,.35,2.62,1.4.89,1.6-.91,2.85-2.33,2.66a.92.92,0,0,0-.92.92l-.48-.16c.5-.49.16-1.62-.63-1.52-1.5.2-3.2-1.14-2.34-2.73a2.21,2.21,0,0,1,2.81-.9c.78.31,1.35-1,.57-1.36Z"/><path class="cls-1" d="M74,74.69c.56,1,1.09,2.09,1.71,3.09a.81.81,0,0,0,1.38,0c.57-.89,1.18-1.76,1.77-2.63h-1.3a2.24,2.24,0,1,0,3.62-2.53l-.55,1.32c2.4-.25,4.2-3.13,2.62-5.26-1.41-1.89-5-1.63-5.6.78a.66.66,0,0,0,1.09.63c.64-.7,1.78-1.38,2.75-.81,1.36.8.59,2.93-.86,3.11a.79.79,0,0,0-.55,1.33l-1.22.67a.76.76,0,0,0-1.3,0c-.61.86-1.22,1.74-1.85,2.58h1.38c-.47-1.08-1-2.13-1.56-3.18s-2.08-.11-1.53.9Z"/><path class="cls-1" d="M84.78,68.52a24.4,24.4,0,0,1,4,8c.79,2.64.81,5.35,1.4,8a.7.7,0,0,0,1.35,0c1.3-5.85-2.3-12.33-6-16.6-.37-.43-1.14.16-.8.62Z"/><path class="cls-1" d="M87.18,67.88c-1.86-1.32-4.28,1.25-4.68,2.94a4.66,4.66,0,0,0,3.27,5.31,1.09,1.09,0,0,0,1.37-1L87,71.24c0-1.09.07-2-.66-2.86a.79.79,0,0,0-1.24.16c-.61.87-.37,1.94-.31,3l.2,3.59,1.37-1a2.52,2.52,0,0,1-1.72-3.19c.45-1.3,1.71-1.48,2.64-2.27a.45.45,0,0,0-.09-.7Z"/><path class="cls-1" d="M54.69,68.26c-.46,5.26,4.74,12.42,10.41,12.09.59,0,.94-.89.33-1.18-2.38-1.15-4.62-1.82-6.5-3.8a14,14,0,0,1-3.34-7.23c-.11-.53-.85-.36-.9.12Z"/><path class="cls-1" d="M56.14,68.57A31.42,31.42,0,0,1,61,74c1.28,1.92,1.66,4.3,2.93,6.15a.9.9,0,0,0,1.67-.45c.19-2.39-1.68-5.18-3-7a14.35,14.35,0,0,0-5.86-4.78c-.42-.18-.92.31-.53.68Z"/><path class="cls-1" d="M65.68,76.49A24.37,24.37,0,0,1,74,69.09l-1.31-1.31a13.5,13.5,0,0,1-3.49,4.64c-1.44,1.23-3.32,1.66-4.74,2.82-.62.51-.07,1.43.6,1.46,1.92.1,4-1.5,5.38-2.68a14.63,14.63,0,0,0,3.91-5.27,1,1,0,0,0-1.32-1.32,25.06,25.06,0,0,0-8.79,8.24c-.58.89.81,1.66,1.4.82Z"/><path class="cls-1" d="M60.39,71.13c-3.1,1.4-2.58,6.28,1.11,6.32s2-4.68,0-3.13a.83.83,0,0,0-.29,1.09l2.07,3.75a.8.8,0,0,0,1.37,0c.82-1.1,1.54-2.69,2.54-3.59.63-.56,1.49-.68,2.09-1.3A3.46,3.46,0,0,0,69.7,70c-1.67-2.56-6-1.48-5.86,1.69l1.59-.21c-.74-2.07-2.84-5.46-5.49-3.57a2.18,2.18,0,0,0,1.24,4,.87.87,0,0,0,0-1.73q.81-2,2,.18a8.35,8.35,0,0,1,.7,1.59c.3.79,1.66.76,1.59-.22-.14-2.15,3.39-2.2,3.33.31-.05,2.12-1.28,1.45-2.27,2.17-1.2.86-2.35,3-3.24,4.22h1.37l-2.07-3.74-.28,1.08c-2.22,1.71-4-2.41-1.4-3.68.59-.3.07-1.15-.51-.88Z"/><path class="cls-6" d="M131.28,244.2a.45.45,0,0,0,0-.9.45.45,0,0,0,0,.9Z"/><path class="cls-1" d="M129.22,250.69c12.48.24,25.05-.9,37.51-1.54l37.51-1.94c25-1.3,50-3.36,75-3.85,1.66,0,1.62-2.69,0-2.55-24.91,2.13-50,2.71-75,4l-36.52,1.94c-12.81.69-25.77.87-38.5,2.46a.73.73,0,0,0,0,1.45Z"/><path class="cls-1" d="M82.22,407.07c-1,8.92-1,18-1.38,27-.29,8.09-1.83,17.25-.48,25.24.13.79,1.36.73,1.54,0,1.91-7.87,1-17.14,1.26-25.24.3-9,.9-18,.51-27a.73.73,0,0,0-1.45,0Z"/></svg>